<svg xmlns="http://www.w3.org/2000/svg" width="510" height="157" viewBox="0 0 510 157" version="1.1"><path d="M 29.200 30.745 L 29.500 36.500 67.250 36.762 L 105 37.024 105.003 73.262 C 105.005 93.193, 105.301 117.263, 105.660 126.750 L 106.315 144 158.657 144 L 211 144 211 97.441 C 211 71.834, 211.380 51.117, 211.843 51.403 C 212.307 51.690, 228.824 72.642, 248.547 97.962 L 284.406 144 291.703 144 L 299 144 299.014 100.250 C 299.021 76.188, 299.299 55.486, 299.631 54.247 C 300.156 52.288, 301.557 53.659, 310.367 64.750 C 315.940 71.765, 332.151 92.466, 346.391 110.753 L 372.282 144 418.141 144 L 464 144 464 114.012 L 464 84.024 425.750 83.762 L 387.500 83.500 387.232 60.262 L 386.963 37.024 425.232 36.762 L 463.500 36.500 463.800 30.750 L 464.100 25 418.704 25 L 373.309 25 372.658 37.750 C 372.301 44.763, 371.959 61.975, 371.898 76 C 371.838 90.025, 371.498 105.513, 371.144 110.418 L 370.500 119.337 339.925 79.918 C 323.108 58.238, 306.741 37.013, 303.554 32.750 L 297.758 25 291.533 25 L 285.309 25 284.658 37.750 C 284.301 44.763, 283.959 61.975, 283.898 76 C 283.838 90.025, 283.498 105.498, 283.144 110.384 L 282.500 119.268 245.993 72.384 L 209.486 25.500 119.193 25.245 L 28.900 24.989 29.200 30.745 M 121 58.500 L 121 80 158.653 80 L 196.306 80 195.652 61.250 C 195.293 50.938, 194.722 41.263, 194.383 39.750 L 193.767 37 157.383 37 L 121 37 121 58.500 M 121 112 L 121 134 158.500 134 L 196 134 196 112 L 196 90 158.500 90 L 121 90 121 112 M 387 114.500 L 387 134 418 134 L 449 134 449 114.500 L 449 95 418 95 L 387 95 387 114.500" stroke="none" fill="#ccfc04" fill-rule="evenodd"/></svg>